<svg width="32" height="32" viewBox="0 0 32 32" fill="none" xmlns="http://www.w3.org/2000/svg">
<rect width="32" height="32" rx="16" fill="#F58F56"/>
<g clip-path="url(#clip0_1103_2174)">
<path d="M23.4414 9.5254C23.0321 9.04795 22.4865 8.77509 21.8726 8.84332H10.0725C8.84471 8.84332 7.82158 10.0029 8.0262 11.2306L9.66322 21.462C9.79964 22.4851 10.6863 23.1672 11.7095 23.1672H20.3038C21.3269 23.1672 22.2136 22.4169 22.3501 21.462L23.9871 11.2306C24.0553 10.6168 23.8506 10.0029 23.4414 9.5254ZM17.439 17.7105C17.2344 17.5058 17.0298 17.3694 16.7569 17.3012L17.3026 14.5729L15.9384 14.3L15.3246 17.233C15.0517 17.3012 14.7789 17.5058 14.5061 17.7105L11.0956 14.3682C13.7557 11.7081 18.0529 11.7081 20.713 14.3682L17.439 17.7105Z" fill="white"/>
</g>
<defs>
<clipPath id="clip0_1103_2174">
<rect width="16" height="16" fill="white" transform="translate(8 8)"/>
</clipPath>
</defs>
</svg>
